<?xml version="1.0" encoding="UTF-8" standalone="no"?>
<svg
   xmlns:dc="http://purl.org/dc/elements/1.1/"
   xmlns:cc="http://creativecommons.org/ns#"
   xmlns:rdf="http://www.w3.org/1999/02/22-rdf-syntax-ns#"
   xmlns:svg="http://www.w3.org/2000/svg"
   xmlns="http://www.w3.org/2000/svg"
   xmlns:sodipodi="http://sodipodi.sourceforge.net/DTD/sodipodi-0.dtd"
   xmlns:inkscape="http://www.inkscape.org/namespaces/inkscape"
   viewBox="0 0 400 400"
   version="1.1"
   id="svg24"
   sodipodi:docname="after-positionning.svg"
   inkscape:version="1.0 (4035a4fb49, 2020-05-01)">
  <metadata
     id="metadata30">
    <rdf:RDF>
      <cc:Work
         rdf:about="">
        <dc:format>image/svg+xml</dc:format>
        <dc:type
           rdf:resource="http://purl.org/dc/dcmitype/StillImage" />
      </cc:Work>
    </rdf:RDF>
  </metadata>
  <defs
     id="defs28" />
  <sodipodi:namedview
     inkscape:document-rotation="0"
     pagecolor="#ffffff"
     bordercolor="#666666"
     borderopacity="1"
     objecttolerance="10"
     gridtolerance="10"
     guidetolerance="10"
     inkscape:pageopacity="0"
     inkscape:pageshadow="2"
     inkscape:window-width="1140"
     inkscape:window-height="1042"
     id="namedview26"
     showgrid="false"
     inkscape:object-paths="true"
     inkscape:snap-intersection-paths="true"
     inkscape:snap-object-midpoints="true"
     inkscape:snap-center="true"
     inkscape:snap-smooth-nodes="true"
     inkscape:snap-bbox="true"
     inkscape:zoom="2.0677578"
     inkscape:cx="177.01258"
     inkscape:cy="172.12681"
     inkscape:window-x="772"
     inkscape:window-y="30"
     inkscape:window-maximized="1"
     inkscape:current-layer="svg24"
     inkscape:snap-page="true" />
  <path
     fill="#fda800"
     d="M 2e-6,1e-6 H 400 V 400 H 2e-6 Z"
     id="path2"
     style="opacity:1" />
  <path
     fill="#00fda7"
     d="m 224,121 c 14,-21 42,-17 52,-1 -13,24 -46,15 -52,1 z"
     id="path4"
     style="opacity:1;fill:#00fda4;fill-opacity:1" />
  <path
     fill="#ffeecc"
     d="m 158.5,183 -2,-3 14,-27 11,19 h 37 l 11,-19 14,27 -2,3 31,95 h -145 z"
     id="path6"
     style="opacity:1" />
  <path
     fill="none"
     stroke="#000000"
     stroke-width="3"
     d="m 200,172 c 0,-26 -1,-48 24,-51 m 0,0 c 12,18 39,19 52,-1 -14,-18 -38,-18 -52,1 z"
     id="path8"
     style="opacity:1" />
  <path
     fill="none"
     stroke="#000000"
     stroke-width="3"
     d="m 234,112 6,9 -6,9"
     id="path14"
     style="opacity:1" />
  <path
     fill="none"
     stroke="#000000"
     stroke-linejoin="round"
     stroke-width="3"
     d="m 127.5,278 31,-95 -2,-3 14,-27 11,19 m 91,106 -31,-95 2,-3 -14,-27 -11,19"
     id="path16"
     style="opacity:1" />
  <path
     fill="none"
     stroke="#000000"
     stroke-width="3"
     d="m 241,108 18,26 m -17,0 8,-13"
     id="path20"
     style="opacity:1" />
  <path
     fill="none"
     stroke="#000000"
     stroke-linecap="round"
     stroke-width="3"
     d="m 259,123 h 14 m -18,-6 h 17"
     id="path22"
     style="opacity:1" />
  <circle
     id="circle867"
     stroke="#000000"
     r="2.4000001"
     cy="208.02028"
     cx="213.65939"
     style="opacity:1" />
  <path
     id="path880"
     style="opacity:1;fill:none;fill-opacity:0.0117647;stroke:#000000;stroke-width:3;stroke-linecap:round;stroke-miterlimit:4;stroke-dasharray:none"
     d="M 220.93147,224.76558 A 20.934198,21.636292 0 0 1 200,246.05246 20.934198,21.636292 0 0 1 179.06853,224.76548" />
  <circle
     cx="186.34061"
     cy="208.02028"
     r="2.4000001"
     stroke="#000000"
     id="circle883"
     style="opacity:1" />
  <path
     id="path847"
     d="m 127.5,278 h 145"
     style="fill:none;stroke:#000000;stroke-width:3;stroke-linecap:round;stroke-linejoin:miter;stroke-miterlimit:4;stroke-dasharray:none;stroke-opacity:1;opacity:1" />
  <path
     id="path849"
     d="m 181.5,172 h 37"
     style="opacity:1;fill:none;stroke:#000000;stroke-width:3;stroke-linecap:round;stroke-linejoin:miter;stroke-miterlimit:4;stroke-dasharray:none;stroke-opacity:1" />
</svg>
