<?xml version="1.0" encoding="UTF-8" standalone="no"?>
<svg
   xmlns:dc="http://purl.org/dc/elements/1.1/"
   xmlns:cc="http://creativecommons.org/ns#"
   xmlns:rdf="http://www.w3.org/1999/02/22-rdf-syntax-ns#"
   xmlns:svg="http://www.w3.org/2000/svg"
   xmlns="http://www.w3.org/2000/svg"
   xmlns:sodipodi="http://sodipodi.sourceforge.net/DTD/sodipodi-0.dtd"
   xmlns:inkscape="http://www.inkscape.org/namespaces/inkscape"
   inkscape:version="1.0 (4035a4fb49, 2020-05-01)"
   sodipodi:docname="matoruru2.svg"
   id="svg28"
   version="1.1"
   viewBox="0 0 400 400">
  <metadata
     id="metadata34">
    <rdf:RDF>
      <cc:Work
         rdf:about="">
        <dc:format>image/svg+xml</dc:format>
        <dc:type
           rdf:resource="http://purl.org/dc/dcmitype/StillImage" />
      </cc:Work>
    </rdf:RDF>
  </metadata>
  <defs
     id="defs32" />
  <sodipodi:namedview
     inkscape:current-layer="svg28"
     inkscape:window-maximized="0"
     inkscape:window-y="30"
     inkscape:window-x="8"
     inkscape:cy="194.54923"
     inkscape:cx="205.99341"
     inkscape:zoom="8.9119595"
     showgrid="false"
     id="namedview30"
     inkscape:window-height="1042"
     inkscape:window-width="1904"
     inkscape:pageshadow="2"
     inkscape:pageopacity="0"
     guidetolerance="10"
     gridtolerance="10"
     objecttolerance="10"
     borderopacity="1"
     bordercolor="#666666"
     pagecolor="#ffffff" />
  <path
     id="path2"
     d="M0 0h400v400H0z"
     stroke="#fda800"
     fill="#fda800" />
  <path
     id="path4"
     d="M244 146l-16-7-15-12c-1-1 5-5 10-7l16-5c7-1 13 0 18 3l12 10-1 2-3 4c-4 5-7 8-11 10-3 2-7 3-10 2z"
     fill="#00fda7" />
  <path
     id="path6"
     d="M124 281a1785 1785 0 0130-91l-1-1-1-1 3-6c4-10 7-14 10-19l1-2 1 1c2 1 3 4 6 9l4 8 1 1h31l3-4a172 172 0 0114-18l4 11c3 11 4 14 7 18l5 13a556 556 0 0033 85H123z"
     fill="#fec" />
  <path
     sodipodi:nodetypes="cccccccccccc"
     id="path8"
     d="m 227,158 c 4,10 4,23 12,31 m -30,-9 c 6,-7 10,-16 18,-22 m -60,3 c 6,5 7,13 11,19 m -26,8 c 5,-9 8,-19 14,-27 m -12,30 -2,-3 m -29,98 c 10,-32 22,-63 31,-95"
     stroke-width="4"
     stroke-linecap="round"
     stroke="#000000"
     fill="none" />
  <path
     id="path10"
     d="M239 189c11 34 21 65 37 97m-101-39c14 19 42 6 52-10"
     stroke-width="4"
     stroke-linecap="round"
     stroke="#000"
     fill="none" />
  <circle
     id="circle12"
     stroke="#000"
     r="2.4"
     cy="216"
     cx="184" />
  <circle
     id="circle14"
     stroke="#000"
     r="2.4"
     cy="216"
     cx="210" />
  <path
     id="path16"
     d="M193 180c0-9-1-53 20-53m-1 0c10 7 18 15 30 19 7 2 14-2 19-7l8-11c-13-11-18-18-36-11-6 2-13 4-18 8z"
     stroke-width="3"
     stroke="#000"
     fill="none" />
  <path
     sodipodi:nodetypes="cccc"
     id="path18"
     d="m 178,180 h 31 m -86,106 h 153"
     stroke-width="4"
     stroke="#000000" />
  <g
     id="g24"
     stroke="#000">
    <path
       id="path20"
       d="M234 116l20 29"
       stroke-width="3" />
    <path
       id="path22"
       d="M243 128l-9 14"
       stroke-width="3" />
  </g>
  <path
     id="path26"
     d="M225 119l6 9-6 9M251 132h16M246 125h19"
     stroke-width="3"
     stroke="#000"
     fill="none" />
</svg>
