<svg xmlns="http://www.w3.org/2000/svg" viewBox="0 0 400 400">
  <path fill="#fda800" d="M0 0h400v400H0z"/>
  <path fill="#00fda7" d="M224 121c14-21 42-17 52-1-13 24-46 15-52 1z"/>
  <path fill="#fec" d="M159 183l-2-3 14-27 11 19h37l11-19 14 27-2 3 31 95H128z"/>
  <path fill="none" stroke="#000" stroke-width="3" d="M200 172c0-26-1-48 24-51m0 0c12 18 39 19 52-1-14-18-38-18-52 1z"/>
  <circle cx="186.4" cy="209.3" r="2.4" stroke="#000"/>
  <circle cx="213.4" cy="209.3" r="2.4" stroke="#000"/>
  <path fill="none" stroke="#000" stroke-width="3" d="M234 112l6 9-6 9"/>
  <path fill="none" stroke="#000" stroke-linejoin="round" stroke-width="3" d="M128 278l31-95-2-3 14-27 11 19M273 278l-31-95 2-3-14-27-11 19"/>
  <path fill="none" stroke="#000" stroke-linecap="round" stroke-width="3" d="M182 172h37M179 225c2 29 41 27 42 0M128 278h145"/>
  <path fill="none" stroke="#000" stroke-width="3" d="M241 108l18 26M242 134l8-13"/>
  <path fill="none" stroke="#000" stroke-linecap="round" stroke-width="3" d="M259 123h14M255 117h17"/>
</svg>
