<?xml version="1.0" encoding="UTF-8" standalone="no"?>
<svg
   xmlns:dc="http://purl.org/dc/elements/1.1/"
   xmlns:cc="http://creativecommons.org/ns#"
   xmlns:rdf="http://www.w3.org/1999/02/22-rdf-syntax-ns#"
   xmlns:svg="http://www.w3.org/2000/svg"
   xmlns="http://www.w3.org/2000/svg"
   xmlns:sodipodi="http://sodipodi.sourceforge.net/DTD/sodipodi-0.dtd"
   xmlns:inkscape="http://www.inkscape.org/namespaces/inkscape"
   inkscape:version="1.0 (4035a4fb49, 2020-05-01)"
   height="258"
   width="258"
   sodipodi:docname="matoruru-icon.svg"
   id="svg28"
   version="1.1"
   viewBox="0 0 258 258">
  <metadata
     id="metadata32">
    <rdf:RDF>
      <cc:Work
         rdf:about="">
        <dc:format>image/svg+xml</dc:format>
        <dc:type
           rdf:resource="http://purl.org/dc/dcmitype/StillImage" />
        <dc:title></dc:title>
      </cc:Work>
    </rdf:RDF>
  </metadata>
  <sodipodi:namedview
     inkscape:current-layer="svg28"
     inkscape:window-maximized="0"
     inkscape:window-y="30"
     inkscape:window-x="8"
     inkscape:cy="121.98153"
     inkscape:cx="162.1313"
     inkscape:zoom="1.1593728"
     showgrid="false"
     id="namedview30"
     inkscape:window-height="1042"
     inkscape:window-width="1904"
     inkscape:pageshadow="2"
     inkscape:pageopacity="0"
     guidetolerance="10"
     gridtolerance="10"
     objecttolerance="10"
     borderopacity="1"
     bordercolor="#666666"
     pagecolor="#ffffff" />
  <defs
     id="defs2">
    <clipPath
       id="clipPath859"
       clipPathUnits="userSpaceOnUse">
      <rect
         y="71"
         x="71"
         height="258"
         width="258"
         id="rect861"
         style="fill:none;stroke:#000000;stroke-width:2;stroke-linecap:round" />
    </clipPath>
  </defs>
  <path
     transform="translate(-71,-71)"
     clip-path="url(#clipPath859)"
     id="path4"
     d="M 0,0 H 400 V 400 H 0 Z"
     fill="#fda800" />
  <path
     id="path6"
     d="m 153,50 c 14,-21 42,-17 52,-1 -13,24 -46,15 -52,1 z"
     fill="#00fda4" />
  <path
     id="path8"
     d="m 88,112 -2,-3 14,-27 11,19 h 37 l 11,-19 14,27 -2,3 31,95 H 57 Z"
     fill="#ffeecc" />
  <path
     id="path10"
     d="m 129,101 c 0,-26 -1,-48 24,-51 m 0,0 c 12,18 39,19 52,-1 -14,-18 -38,-18 -52,1 z"
     stroke-width="3"
     stroke="#000000"
     fill="none" />
  <path
     id="path12"
     d="m 163,41 6,9 -6,9"
     stroke-width="3"
     stroke="#000000"
     fill="none" />
  <path
     id="path14"
     d="m 57,207 31,-95 -2,-3 14,-27 11,19 m 91,106 -31,-95 2,-3 -14,-27 -11,19"
     stroke-width="3"
     stroke-linejoin="round"
     stroke="#000000"
     fill="none" />
  <path
     id="path16"
     d="m 170,37 18,26 m -17,0 8,-13"
     stroke-width="3"
     stroke="#000000"
     fill="none" />
  <path
     id="path18"
     d="m 188,52 h 14 m -18,-6 h 17"
     stroke-width="3"
     stroke-linecap="round"
     stroke="#000000"
     fill="none" />
  <circle
     id="circle20"
     stroke="#000000"
     r="2.4000001"
     cy="137"
     cx="142.7" />
  <path
     id="path22"
     d="m 150,154 a 21,22 0 0 1 -21,21 21,22 0 0 1 -21,-21"
     stroke-width="3"
     stroke-linecap="round"
     stroke="#000000"
     fill="none" />
  <circle
     id="circle24"
     stroke="#000000"
     r="2.4000001"
     cy="137"
     cx="115.3" />
  <path
     id="path26"
     d="M 57,207 H 202 M 111,101 h 37"
     stroke-width="3"
     stroke-linecap="round"
     stroke="#000000"
     fill="none" />
</svg>
