<svg xmlns="http://www.w3.org/2000/svg" viewBox="0 0 400 400">
  <defs/>
  <path fill="#fda800" stroke="#fda800" stroke-width=".3" d="M0 0h400v400H0z"/>
  <g style="mix-blend-mode:normal" transform="translate(-58 -58)">
    <path fill="#00fda7" d="M302 204l-16-7-15-12c-1-1 5-5 10-7l16-5c7-1 13 0 18 3l12 10-1 2-3 4c-4 5-7 8-11 10-3 2-7 3-10 2z"/>
    <path fill="#fec" d="M182 339a1785 1785 0 0130-91l-1-1-1-1 3-6c4-10 7-14 10-19l1-2 1 1c2 1 3 4 6 9l4 8 1 1h31l3-4a172 172 0 0114-18l4 11c3 11 4 14 7 18l5 13a556 556 0 0033 85H181z"/>
    <path fill="none" stroke="#000" stroke-linecap="square" stroke-width="3" d="M304 183h18"/>
    <path fill="none" stroke="#000" stroke-linecap="round" stroke-linejoin="round" stroke-width="4" d="M285 216c4 10 4 23 12 31M267 238c6-7 10-16 18-22M225 219c6 5 7 13 11 19M210 246c5-9 8-19 14-27M212 249l-2-3M181 344c10-32 22-64 31-96"/>
    <path fill="none" stroke="#000" stroke-linecap="round" stroke-width="4" d="M297 247c11 34 21 65 37 97M233 305c14 19 42 6 52-10"/>
    <circle cx="231.6" cy="282.8" r="2.6" stroke="#000" stroke-linecap="round" stroke-width=".3" transform="rotate(-2)"/>
    <circle cx="258.4" cy="283.8" r="2.6" stroke="#000" stroke-linecap="round" stroke-width=".3" transform="rotate(-2)"/>
    <path fill="none" stroke="#000" stroke-linecap="round" stroke-width="3" d="M251 238c0-9-1-53 20-53M270 185c10 7 18 15 30 19 7 2 14-2 19-7l8-11c-13-11-18-18-36-11-6 2-13 4-18 8l-3 2z"/>
    <path fill="none" stroke="#000" stroke-linecap="round" stroke-linejoin="round" stroke-width="3" d="M285 194l4-7-6-9"/>
    <path fill="none" stroke="#000" stroke-linecap="round" stroke-width="3" d="M292 176l7 11-7 11"/>
    <path fill="none" stroke="#000" stroke-linecap="square" stroke-width="3" d="M308 190h14"/>
    <path fill="none" stroke="#000" stroke-linecap="round" stroke-width="3" d="M292 176l18 27"/>
    <path fill="none" stroke="#000" stroke-linecap="round" stroke-width="4" d="M236 238h31M181 344h153"/>
  </g>
</svg>
