<?xml version="1.0" encoding="UTF-8" standalone="no"?>
<svg
   xmlns:dc="http://purl.org/dc/elements/1.1/"
   xmlns:cc="http://creativecommons.org/ns#"
   xmlns:rdf="http://www.w3.org/1999/02/22-rdf-syntax-ns#"
   xmlns:svg="http://www.w3.org/2000/svg"
   xmlns="http://www.w3.org/2000/svg"
   xmlns:sodipodi="http://sodipodi.sourceforge.net/DTD/sodipodi-0.dtd"
   xmlns:inkscape="http://www.inkscape.org/namespaces/inkscape"
   inkscape:version="1.0 (4035a4fb49, 2020-05-01)"
   sodipodi:docname="matoruru2.svg"
   id="svg22"
   version="1.1"
   viewBox="0 0 400 400">
  <metadata
     id="metadata28">
    <rdf:RDF>
      <cc:Work
         rdf:about="">
        <dc:format>image/svg+xml</dc:format>
        <dc:type
           rdf:resource="http://purl.org/dc/dcmitype/StillImage" />
      </cc:Work>
    </rdf:RDF>
  </metadata>
  <defs
     id="defs26">
    <inkscape:path-effect
       only_selected="false"
       apply_with_weight="true"
       apply_no_weight="true"
       helper_size="0"
       steps="2"
       weight="33.333333"
       lpeversion="1"
       is_visible="true"
       id="path-effect855"
       effect="bspline" />
  </defs>
  <sodipodi:namedview
     inkscape:current-layer="svg22"
     inkscape:window-maximized="0"
     inkscape:window-y="30"
     inkscape:window-x="8"
     inkscape:cy="203.13947"
     inkscape:cx="186.54434"
     inkscape:zoom="3.0137875"
     showgrid="false"
     id="namedview24"
     inkscape:window-height="1042"
     inkscape:window-width="1904"
     inkscape:pageshadow="2"
     inkscape:pageopacity="0"
     guidetolerance="10"
     gridtolerance="10"
     objecttolerance="10"
     borderopacity="1"
     bordercolor="#666666"
     pagecolor="#ffffff"
     inkscape:document-rotation="0" />
  <path
     style="opacity:1"
     id="path2"
     d="M0 0h400v400H0z"
     fill="#fda800" />
  <path
     style="opacity:1"
     id="path4"
     d="M 241.4756,142.82607 C 229.12249,140.74889 224.30542,136.3553 213,127 c 8.8573,-7.04289 14.18959,-8.30925 26,-12 13.87646,-1.92172 19.15444,2.40474 30,13 l -1,2 c -6.77403,9.88384 -14.9795,14.89957 -26.5244,12.82607 z"
     fill="#00fda7"
     sodipodi:nodetypes="cccccc" />
  <path
     style="opacity:1"
     id="path6"
     d="M124 281a1785 1785 0 0130-91l-1-1-1-1 3-6c4-10 7-14 10-19l1-2 1 1c2 1 3 4 6 9l4 8 1 1h31l3-4a172 172 0 0114-18l4 11c3 11 4 14 7 18l5 13a556 556 0 0033 85H123z"
     fill="#fec" />
  <path
     style="opacity:1"
     id="path8"
     d="M227 158c4 10 4 23 12 31m-30-9c6-7 10-16 18-22m-60 3c6 5 7 13 11 19m-26 8c5-9 8-19 14-27m-12 30l-2-3m-29 98c10-32 22-63 31-95M239 189c11 34 21 65 37 97m-101-39c14 19 42 6 52-10"
     stroke-width="4"
     stroke-linecap="round"
     stroke="#000"
     fill="none" />
  <path
     id="path10"
     d="m 193,180 c 0,-9 -1,-53 20,-53 m 0,0 c 21.85341,18.76306 42.06349,22.47625 56,1 -18.20436,-20.37294 -32.90499,-15.80643 -56,-1 z"
     stroke-width="3"
     stroke="#000000"
     fill="none"
     style="opacity:1"
     sodipodi:nodetypes="ccccc" />
  <path
     style="opacity:1"
     id="path12"
     d="M178 180h31m-86 106h153"
     stroke-width="4"
     stroke="#000" />
  <path
     style="opacity:1"
     id="path14"
     d="m 233.98331,115.42858 18.55339,26.9575 m -10.20437,-15.80267 -8.34902,13.01396"
     stroke-width="3"
     stroke="#000000" />
  <circle
     style="opacity:1"
     id="circle18"
     stroke="#000"
     r="2.4"
     cy="216"
     cx="184" />
  <circle
     style="opacity:1"
     id="circle20"
     stroke="#000"
     r="2.4"
     cy="216"
     cx="210" />
  <path
     id="path840"
     d="m 225,119 6,9 -6,9"
     style="fill:none;stroke:#000000;stroke-width:3;stroke-linecap:butt;stroke-linejoin:miter;stroke-opacity:1;stroke-miterlimit:4;stroke-dasharray:none;opacity:1" />
  <path
     id="path842"
     d="m 245.91591,124.08691 h 18.49967"
     style="fill:none;stroke:#000000;stroke-width:3;stroke-linecap:round;stroke-linejoin:miter;stroke-miterlimit:4;stroke-dasharray:none;stroke-opacity:1;opacity:1" />
  <path
     id="path844"
     d="m 250.95579,130.26343 h 15.61205"
     style="fill:none;stroke:#000000;stroke-width:3;stroke-linecap:round;stroke-linejoin:miter;stroke-miterlimit:4;stroke-dasharray:none;stroke-opacity:1;opacity:1" />
</svg>
