<svg xmlns="http://www.w3.org/2000/svg" width="210.65" height="210.65" viewBox="0 0 55.73 55.73">
  <metadata/>
  <path fill="#fcf2e0" d="M0 27.87V0H55.73V55.73H0z"/>
  <path fill="#fda800" d="M0 27.87V0H55.73V55.73h-9.58v-.24c0-.17-.06-.3-.21-.45a1.2 1.2 0 01-.29-.43c-.03-.12-.4-1.02-.82-2a271.72 271.72 0 01-6.95-19.66c-.24-.77-.48-1.46-.54-1.53-.09-.1-.11-.33-.11-1.1v-1l-.24-.38c-.8-1.26-1.2-2.47-1.76-5.33-.15-.77-.3-1.43-.33-1.49-.15-.23-3.65 3.86-3.98 4.65-.2.5-2.63.66-6.28.41-2.56-.17-2.63-.22-3.63-2.8-1.18-3.03-1.11-3.02-2.48-.21-.44.9-1.06 2.09-1.38 2.65-.72 1.24-.74 1.32-.42 1.47.29.13.28.35-.04 1.36-.97 3.03-2.23 6.33-5.88 15.34a222.52 222.52 0 00-2.42 6.21c-.14.36-.28.84-.3 1.06a5.25 5.25 0 00-.25 2.13v1.34H0zm25.12 20.86c-1.66-.46-4.32-3.8-3.47-4.33.3-.2 1.03.09 1.1.42l.07.34c.07.31 1.2 1.72 1.66 2.06 1.17.86 1.8.77 4.15-.56 1.6-.91 4.95-3.17 5.74-3.86.52-.47 1.04-.35 1.04.24 0 .35-.26.57-2.6 2.2-4.26 2.94-6.32 3.88-7.7 3.49zm4.84-10.6a.64.64 0 01-.08-1.05c.27-.2.57-.18.82.07.52.52-.1 1.34-.74.99zm-6.88-.45c-.43-.43-.17-1.06.43-1.06.8 0 .86 1.1.06 1.24-.23.03-.3 0-.49-.18z"/>
  <path fill="#00f000" d="M45.9 54.98c-.14-.14-.25-.3-.25-.38 0-.07-.33-.9-.73-1.83-2.02-4.73-7.47-20.49-7.47-21.6 0-.6.86-.67.97-.06.2 1.06 3.85 11.95 5.7 16.97.77 2.1 2.17 5.45 2.55 6.1.48.85-.11 1.46-.78.8zM7.15 53.03c-.45-.33.02-1.8 2.6-8.18 3.8-9.4 5.06-12.67 5.99-15.63l.22-.7-.22-.21c-.36-.35-.28-.68.5-2.01.21-.35.82-1.52 1.36-2.6 2-3.98 2.77-3.92 4.37.35.77 2.04.94 2.15 3.54 2.15h.37l.05-.38c.45-3.6 2.05-8.57 3.53-11 .73-1.2 2.73-3.4 3.6-3.98.34-.23.38-.27.4-.55.02-.3.02-.31.3-.3.2 0 .27-.02.27-.12 0-.42 1.05-.34 2.79.22.37.12.73.22.8.22.07 0 .18.04.25.1.06.05.5.26.98.47 4.59 2 5.1 2.62 5.37 6.36.1 1.44.17 1.97.38 3.2.07.45-.49.43-.68-.02-.13-.32-.6-.3-1 .02-.13.12-.25.16-.32.12-.18-.08-.63-.06-1.52.07-2.43.37-4.06-.26-5.36-2.06-.43-.6-.45-.6-.7-.58-.48.04-.66-.31-.29-.55l.23-.14c.09-.06-.45-1.4-.58-1.45-.24-.07-.32-.35-.18-.57.11-.17.11-.23-.02-.9-.08-.38-.22-1.14-.3-1.68-.19-1.16-.18-1.13-.4-.95a.45.45 0 01-.39.1c-.55-.1-2.68 2.47-3.7 4.48-1.17 2.3-2.68 7.44-2.78 9.43l-.02.47.83.02c.46.01 1.23 0 1.7-.03l.87-.06.7-.91c1.63-2.16 3.5-4.2 4.1-4.5.78-.37.86-.22 1.56 3.3.46 2.3.9 3.48 1.7 4.61.4.58.46 1 .14 1.21-.85.56-2.13-2.15-2.93-6.18-.17-.83-.34-1.55-.37-1.6-.18-.17-3.98 4.26-3.98 4.65 0 .51-3.92.66-7.75.29-.94-.1-1.3-.53-2.12-2.61-1.22-3.1-1.12-3.1-2.5-.32a66.43 66.43 0 01-1.98 3.72l-.13.28.23.2c.31.26.33.37.13.93l-.55 1.65c-.67 2.09-2.21 6.07-5.44 14.04a222.55 222.55 0 00-2.43 6.24c-.15.38-.3.9-.33 1.16-.1.7-.5 1-.9.7zm17.75-4.4c-.82-.28-1.48-.84-2.3-1.92-1.16-1.56-1.35-1.99-.97-2.26.42-.29 1.15.1 1.15.62 0 .24.99 1.58 1.5 2.02 1.2 1.07 1.92.98 4.66-.59 1.38-.79 4.6-2.98 5.41-3.68.51-.44 1.05-.34 1.05.2 0 .36-.12.46-2.75 2.28-4.36 3.01-6.28 3.84-7.75 3.33zm4.96-10.6c-.34-.28-.24-.85.17-1.02.65-.27 1.15.64.57 1.05a.6.6 0 01-.74-.04zm-6.62-.25c-.26-.12-.42-.47-.32-.72.25-.65 1.16-.52 1.16.17 0 .45-.42.73-.84.55z"/>
  <path fill="#101106" d="M45.9 54.98c-.14-.14-.25-.3-.25-.38 0-.07-.33-.9-.73-1.83-2.02-4.73-7.47-20.49-7.47-21.6 0-.6.86-.67.97-.06.2 1.06 3.85 11.95 5.7 16.97.77 2.1 2.17 5.45 2.55 6.1.48.85-.11 1.46-.78.8zM7.15 53.03c-.45-.33.02-1.8 2.6-8.18 3.8-9.4 5.06-12.67 5.99-15.63l.22-.7-.22-.21c-.36-.35-.28-.68.5-2.01.21-.35.82-1.52 1.36-2.6 2-3.98 2.77-3.92 4.37.35.77 2.04.94 2.15 3.54 2.15h.37l.05-.38c.45-3.6 2.05-8.57 3.53-11 .73-1.2 2.73-3.4 3.6-3.98.34-.23.38-.27.4-.55.02-.3.02-.31.3-.3.2 0 .27-.02.27-.12 0-.42 1.05-.34 2.79.22.37.12.73.22.8.22.07 0 .18.04.25.1.06.05.5.26.98.47 4.59 2 5.1 2.62 5.37 6.36.1 1.44.17 1.97.38 3.2.07.45-.49.43-.68-.02-.13-.32-.6-.3-1 .02-.13.12-.25.16-.32.12-.18-.08-.63-.06-1.52.07-2.43.37-4.06-.26-5.36-2.06-.43-.6-.45-.6-.7-.58-.48.04-.66-.31-.29-.55l.23-.14c.09-.06-.45-1.4-.58-1.45-.24-.07-.32-.35-.18-.57.11-.17.11-.23-.02-.9-.08-.38-.22-1.14-.3-1.68-.19-1.16-.18-1.13-.4-.95a.45.45 0 01-.39.1c-.55-.1-2.68 2.47-3.7 4.48-1.17 2.3-2.68 7.44-2.78 9.43l-.02.47.83.02c.46.01 1.23 0 1.7-.03l.87-.06.7-.91c1.63-2.16 3.5-4.2 4.1-4.5.78-.37.86-.22 1.56 3.3.46 2.3.9 3.48 1.7 4.61.4.58.46 1 .14 1.21-.85.56-2.13-2.15-2.93-6.18-.17-.83-.34-1.55-.37-1.6-.18-.17-3.98 4.26-3.98 4.65 0 .51-3.92.66-7.75.29-.94-.1-1.3-.53-2.12-2.61-1.22-3.1-1.12-3.1-2.5-.32a66.43 66.43 0 01-1.98 3.72l-.13.28.23.2c.31.26.33.37.13.93l-.55 1.65c-.67 2.09-2.21 6.07-5.44 14.04a222.55 222.55 0 00-2.43 6.24c-.15.38-.3.9-.33 1.16-.1.7-.5 1-.9.7zm33.62-33.01c1-.11 1-.12.47-.66-.99-1.02-1.2-1.29-1.2-1.55 0-.48.43-.49.72-.01.21.34 1.79 1.87 1.92 1.87.87 0 1.12-.3.61-.73-.2-.18-.86-.82-1.46-1.44-.6-.6-1.22-1.2-1.4-1.33-.32-.22-.41-.5-.22-.7.24-.24.42-.1 1.88 1.34.88.87 1.45 1.39 1.48 1.34.07-.12-.1-2.4-.22-3-.2-.96-.7-1.53-2.05-2.3-1.07-.6-1.08-.6-1.14-.21a51.93 51.93 0 00-.32 4.81c-.04 1.3-.1 2.19-.14 2.31-.16.38-.1.4 1.07.26zM39 19.65c.18-.43.25-2.72.09-2.78-.29-.11-3.03.72-3.03.92 0 .91 2.64 2.58 2.94 1.86zm-2.18-2.95a16.55 16.55 0 012.26-.56c.05-.01.1-.22.13-.48l.18-2.05c.17-1.84.23-1.66-.68-2.06-1.03-.45-.95-.59-1.03 1.69-.05 1.56-.1 1.71-.48 1.71-.19 0-1.3.31-1.73.48-.33.14-.34.21-.13.85.18.55.34.8.46.75l1.02-.33zm-.8-2.15c.36-.1.72-.22.8-.25.15-.06.16-.13.21-1.54l.07-1.65c.01-.22-.1-.29-1-.55-.65-.2-1.93-.33-1.93-.22 0 .29.7 4.3.78 4.42.05.08.26.03 1.07-.21zM24.91 48.63c-.82-.28-1.48-.84-2.3-1.92-1.16-1.56-1.35-1.99-.97-2.26.42-.29 1.15.1 1.15.62 0 .24.99 1.58 1.5 2.02 1.2 1.07 1.92.98 4.66-.59 1.38-.79 4.6-2.98 5.41-3.68.51-.44 1.05-.34 1.05.2 0 .36-.12.46-2.75 2.28-4.36 3.01-6.28 3.84-7.75 3.33zm4.96-10.6c-.34-.28-.24-.85.17-1.02.65-.27 1.15.64.57 1.05a.6.6 0 01-.74-.04zm-6.62-.25c-.26-.12-.42-.47-.32-.72.25-.65 1.16-.52 1.16.17 0 .45-.42.73-.84.55z"/>
</svg>
