<svg xmlns="http://www.w3.org/2000/svg" viewBox="0 0 400 400">
  <path fill="#fda800" d="M0 0h400v400H0z"/>
  <path fill="#00fda7" d="M244 146l-16-7-15-12c-1-1 5-5 10-7l16-5c7-1 13 0 18 3l12 10-1 2-3 4c-4 5-7 8-11 10-3 2-7 3-10 2z"/>
  <path fill="#fec" d="M124 281a1785 1785 0 0130-91l-1-1-1-1 3-6c4-10 7-14 10-19l1-2 1 1c2 1 3 4 6 9l4 8 1 1h31l3-4a172 172 0 0114-18l4 11c3 11 4 14 7 18l5 13a556 556 0 0033 85H123z"/>
  <path fill="none" stroke="#000" stroke-linecap="round" stroke-width="4" d="M227 158c4 10 4 23 12 31m-30-9c6-7 10-16 18-22m-60 3c6 5 7 13 11 19m-26 8c5-9 8-19 14-27m-12 30l-2-3m-29 98c10-32 22-63 31-95M239 189c11 34 21 65 37 97m-101-39c14 19 42 6 52-10"/>
  <path fill="none" stroke="#000" stroke-width="3" d="M193 180c0-9-1-53 20-53m-1 0c10 7 18 15 30 19 7 2 14-2 19-7l8-11c-13-11-18-18-36-11-6 2-13 4-18 8z"/>
  <path stroke="#000" stroke-width="4" d="M178 180h31m-86 106h153"/>
  <path stroke="#000" stroke-width="3" d="M234 116l20 29M243 128l-9 14"/>
  <path fill="none" stroke="#000" stroke-width="3" d="M225 119l6 9-6 9m26-5h16m-21-7h19"/>
  <circle cx="184" cy="216" r="2.4" stroke="#000"/>
  <circle cx="210" cy="216" r="2.4" stroke="#000"/>
</svg>
