<?xml version="1.0" encoding="UTF-8" standalone="no"?>
<svg
   xmlns:dc="http://purl.org/dc/elements/1.1/"
   xmlns:cc="http://creativecommons.org/ns#"
   xmlns:rdf="http://www.w3.org/1999/02/22-rdf-syntax-ns#"
   xmlns:svg="http://www.w3.org/2000/svg"
   xmlns="http://www.w3.org/2000/svg"
   xmlns:sodipodi="http://sodipodi.sourceforge.net/DTD/sodipodi-0.dtd"
   xmlns:inkscape="http://www.inkscape.org/namespaces/inkscape"
   inkscape:version="1.0 (4035a4fb49, 2020-05-01)"
   sodipodi:docname="matoruru2.svg"
   id="svg26"
   version="1.1"
   viewBox="0 0 400 400">
  <metadata
     id="metadata30">
    <rdf:RDF>
      <cc:Work
         rdf:about="">
        <dc:format>image/svg+xml</dc:format>
        <dc:type
           rdf:resource="http://purl.org/dc/dcmitype/StillImage" />
      </cc:Work>
    </rdf:RDF>
  </metadata>
  <sodipodi:namedview
     inkscape:current-layer="svg26"
     inkscape:window-maximized="0"
     inkscape:window-y="30"
     inkscape:window-x="8"
     inkscape:cy="169.07517"
     inkscape:cx="192.01604"
     inkscape:zoom="2.5999195"
     showgrid="false"
     id="namedview28"
     inkscape:window-height="1042"
     inkscape:window-width="1904"
     inkscape:pageshadow="2"
     inkscape:pageopacity="0"
     guidetolerance="10"
     gridtolerance="10"
     objecttolerance="10"
     borderopacity="1"
     bordercolor="#666666"
     pagecolor="#ffffff"
     inkscape:document-rotation="0" />
  <defs
     id="defs2" />
  <path
     style="opacity:1"
     id="path4"
     d="M 0,0 H 400 V 400 H 0 Z"
     stroke="#fda800"
     fill="#fda800" />
  <path
     sodipodi:nodetypes="ccccccccc"
     id="path6"
     d="m 228,139 v 0 l -15,-12 c -1,-1 11.97364,-7.65501 16.97364,-9.65501 C 237.91446,114.8728 250.78729,108.87735 269,128 v 0 l -2,4 c -3.1442,5.77038 -7.83855,10.34474 -13,13 -7.43292,2.21728 -11.54578,5.00706 -26,-6 z"
     fill="#00fda7"
     style="opacity:1" />
  <path
     id="path8"
     d="m 154,190 -2,-2 15,-27 v 0 c 11,19 1,1 11,19 v 0 h 31 l 18,-22 3,11 c 3.61346,11.94717 3.52437,11.99086 7,18 l 2,2 c 0,0 14.67116,50.95636 37,97 H 123 Z"
     fill="#ffeecc"
     sodipodi:nodetypes="cccccccccccccc"
     style="opacity:1" />
  <path
     style="opacity:1"
     sodipodi:nodetypes="cccccccccccccccc"
     id="path10"
     d="m 227,158 c 0,0 4.46852,25.05425 12,31 m -30,-9 18,-22 m -60,3 c 6,10 6,10 11,19 m -26,8 c 5,-9 4.97614,-8.98535 15,-27 m -13,30 -2,-3 m -29,98 c 10,-32 22,-63 31,-95 m 85,-2 c 11,34 21,65 37,97 M 175,247 c 14,19 42,6 52,-10"
     stroke-width="4"
     stroke-linecap="round"
     stroke="#000000"
     fill="none" />
  <circle
     id="circle12"
     stroke="#000000"
     r="2.4000001"
     cy="216"
     cx="184"
     style="opacity:1" />
  <circle
     id="circle14"
     stroke="#000000"
     r="2.4000001"
     cy="216"
     cx="210"
     style="opacity:1" />
  <path
     sodipodi:nodetypes="ccccccsc"
     id="path16"
     d="m 193,180 c 0,-9 -2,-53 19,-53 m 0,0 c 10,7 18,15 30,19 13.54755,1.28255 23.6817,-9.02402 27,-18 v 0 C 260.31673,120.69996 254.74813,115.05146 245.51987,115.07754 229.39396,115.1231 222.82652,121.22839 212,127 Z"
     stroke-width="3"
     stroke="#000000"
     fill="none"
     style="opacity:1" />
  <path
     style="opacity:1"
     id="path18"
     d="m 178,180 h 31 m -86,106 h 153"
     stroke-width="4"
     stroke="#000000"
     sodipodi:nodetypes="cccc" />
  <g
     id="g22"
     stroke-width="3"
     stroke="#000000"
     style="opacity:1">
    <path
       id="path20"
       d="m 234,116 20,29 m -11,-17 -9,14" />
  </g>
  <path
     id="path24"
     d="m 225,119 6,9 -6,9 m 26,-5 h 16 m -21,-7 h 19"
     stroke-width="3"
     stroke="#000000"
     fill="none"
     style="opacity:1" />
</svg>
