<?xml version="1.0" encoding="UTF-8" standalone="no"?>
<svg
   xmlns:dc="http://purl.org/dc/elements/1.1/"
   xmlns:cc="http://creativecommons.org/ns#"
   xmlns:rdf="http://www.w3.org/1999/02/22-rdf-syntax-ns#"
   xmlns:svg="http://www.w3.org/2000/svg"
   xmlns="http://www.w3.org/2000/svg"
   xmlns:sodipodi="http://sodipodi.sourceforge.net/DTD/sodipodi-0.dtd"
   xmlns:inkscape="http://www.inkscape.org/namespaces/inkscape"
   inkscape:version="1.0 (4035a4fb49, 2020-05-01)"
   sodipodi:docname="matoruru.svg"
   id="svg28"
   version="1.1"
   viewBox="0 0 400 400">
  <metadata
     id="metadata32">
    <rdf:RDF>
      <cc:Work
         rdf:about="">
        <dc:format>image/svg+xml</dc:format>
        <dc:type
           rdf:resource="http://purl.org/dc/dcmitype/StillImage" />
        <dc:title></dc:title>
      </cc:Work>
    </rdf:RDF>
  </metadata>
  <sodipodi:namedview
     inkscape:current-layer="svg28"
     inkscape:window-maximized="0"
     inkscape:window-y="30"
     inkscape:window-x="8"
     inkscape:cy="210.46305"
     inkscape:cx="437.95835"
     inkscape:zoom="0.86269356"
     inkscape:snap-page="true"
     showgrid="false"
     id="namedview30"
     inkscape:window-height="1042"
     inkscape:window-width="1904"
     inkscape:pageshadow="2"
     inkscape:pageopacity="0"
     guidetolerance="10"
     gridtolerance="10"
     objecttolerance="10"
     borderopacity="1"
     bordercolor="#666666"
     pagecolor="#ffffff" />
  <defs
     id="defs2">
    <clipPath
       id="clipPath859"
       clipPathUnits="userSpaceOnUse">
      <rect
         y="71.5"
         x="71.5"
         height="257"
         width="257"
         id="rect861"
         style="fill:none;stroke:#000000;stroke-width:3;stroke-linecap:round" />
    </clipPath>
    <clipPath
       id="clipPath863"
       clipPathUnits="userSpaceOnUse">
      <rect
         y="71.5"
         x="71.5"
         height="257"
         width="257"
         id="rect865"
         style="fill:none;stroke:#000000;stroke-width:3;stroke-linecap:round" />
    </clipPath>
    <clipPath
       id="clipPath867"
       clipPathUnits="userSpaceOnUse">
      <rect
         y="71.5"
         x="71.5"
         height="257"
         width="257"
         id="rect869"
         style="fill:none;stroke:#000000;stroke-width:3;stroke-linecap:round" />
    </clipPath>
    <clipPath
       id="clipPath871"
       clipPathUnits="userSpaceOnUse">
      <rect
         y="71.5"
         x="71.5"
         height="257"
         width="257"
         id="rect873"
         style="fill:none;stroke:#000000;stroke-width:3;stroke-linecap:round" />
    </clipPath>
    <clipPath
       id="clipPath875"
       clipPathUnits="userSpaceOnUse">
      <rect
         y="71.5"
         x="71.5"
         height="257"
         width="257"
         id="rect877"
         style="fill:none;stroke:#000000;stroke-width:3;stroke-linecap:round" />
    </clipPath>
    <clipPath
       id="clipPath879"
       clipPathUnits="userSpaceOnUse">
      <rect
         y="71.5"
         x="71.5"
         height="257"
         width="257"
         id="rect881"
         style="fill:none;stroke:#000000;stroke-width:3;stroke-linecap:round" />
    </clipPath>
    <clipPath
       id="clipPath883"
       clipPathUnits="userSpaceOnUse">
      <rect
         y="71.5"
         x="71.5"
         height="257"
         width="257"
         id="rect885"
         style="fill:none;stroke:#000000;stroke-width:3;stroke-linecap:round" />
    </clipPath>
    <clipPath
       id="clipPath887"
       clipPathUnits="userSpaceOnUse">
      <rect
         y="71.5"
         x="71.5"
         height="257"
         width="257"
         id="rect889"
         style="fill:none;stroke:#000000;stroke-width:3;stroke-linecap:round" />
    </clipPath>
    <clipPath
       id="clipPath891"
       clipPathUnits="userSpaceOnUse">
      <rect
         y="71.5"
         x="71.5"
         height="257"
         width="257"
         id="rect893"
         style="fill:none;stroke:#000000;stroke-width:3;stroke-linecap:round" />
    </clipPath>
    <clipPath
       id="clipPath895"
       clipPathUnits="userSpaceOnUse">
      <rect
         y="71.5"
         x="71.5"
         height="257"
         width="257"
         id="rect897"
         style="fill:none;stroke:#000000;stroke-width:3;stroke-linecap:round" />
    </clipPath>
    <clipPath
       id="clipPath899"
       clipPathUnits="userSpaceOnUse">
      <rect
         y="71.5"
         x="71.5"
         height="257"
         width="257"
         id="rect901"
         style="fill:none;stroke:#000000;stroke-width:3;stroke-linecap:round" />
    </clipPath>
    <clipPath
       id="clipPath903"
       clipPathUnits="userSpaceOnUse">
      <rect
         y="71.5"
         x="71.5"
         height="257"
         width="257"
         id="rect905"
         style="fill:none;stroke:#000000;stroke-width:3;stroke-linecap:round" />
    </clipPath>
  </defs>
  <path
     style="stroke-width:0.642394"
     transform="matrix(1.5566774,0,0,1.5566774,-111.36853,-111.36853)"
     clip-path="url(#clipPath903)"
     id="path4"
     d="M 0,0 H 400 V 400 H 0 Z"
     fill="#fda800" />
  <path
     style="stroke-width:0.642394"
     transform="matrix(1.5566774,0,0,1.5566774,-111.36853,-111.36853)"
     clip-path="url(#clipPath899)"
     id="path6"
     d="m 224,121 c 14,-21 42,-17 52,-1 -13,24 -46,15 -52,1 z"
     fill="#00fda4" />
  <path
     style="stroke-width:0.642394"
     transform="matrix(1.5566774,0,0,1.5566774,-111.36853,-111.36853)"
     clip-path="url(#clipPath895)"
     id="path8"
     d="m 159,183 -2,-3 14,-27 11,19 h 37 l 11,-19 14,27 -2,3 31,95 H 128 Z"
     fill="#ffeecc" />
  <path
     transform="matrix(1.5566774,0,0,1.5566774,-111.36853,-111.36853)"
     clip-path="url(#clipPath891)"
     id="path10"
     d="m 200,172 c 0,-26 -1,-48 24,-51 m 0,0 c 12,18 39,19 52,-1 -14,-18 -38,-18 -52,1 z"
     stroke-width="1.92718"
     stroke="#000000"
     fill="none" />
  <path
     transform="matrix(1.5566774,0,0,1.5566774,-111.36853,-111.36853)"
     clip-path="url(#clipPath887)"
     id="path12"
     d="m 234,112 6,9 -6,9"
     stroke-width="1.92718"
     stroke="#000000"
     fill="none" />
  <path
     transform="matrix(1.5566774,0,0,1.5566774,-111.36853,-111.36853)"
     clip-path="url(#clipPath883)"
     id="path14"
     d="m 128,278 31,-95 -2,-3 14,-27 11,19 m 91,106 -31,-95 2,-3 -14,-27 -11,19"
     stroke-width="1.92718"
     stroke-linejoin="round"
     stroke="#000000"
     fill="none" />
  <path
     transform="matrix(1.5566774,0,0,1.5566774,-111.36853,-111.36853)"
     clip-path="url(#clipPath879)"
     id="path16"
     d="m 241,108 18,26 m -17,0 8,-13"
     stroke-width="1.92718"
     stroke="#000000"
     fill="none" />
  <path
     transform="matrix(1.5566774,0,0,1.5566774,-111.36853,-111.36853)"
     clip-path="url(#clipPath875)"
     id="path18"
     d="m 259,123 h 14 m -18,-6 h 17"
     stroke-width="1.92718"
     stroke-linecap="round"
     stroke="#000000"
     fill="none" />
  <circle
     style="stroke-width:0.642394"
     transform="matrix(1.5566774,0,0,1.5566774,-111.36853,-111.36853)"
     clip-path="url(#clipPath871)"
     id="circle20"
     stroke="#000000"
     r="2.4000001"
     cy="208"
     cx="213.7" />
  <path
     transform="matrix(1.5566774,0,0,1.5566774,-111.36853,-111.36853)"
     clip-path="url(#clipPath867)"
     id="path22"
     d="m 221,225 a 21,22 0 0 1 -21,21 21,22 0 0 1 -21,-21"
     stroke-width="1.92718"
     stroke-linecap="round"
     stroke="#000000"
     fill="none" />
  <circle
     style="stroke-width:0.642394"
     transform="matrix(1.5566774,0,0,1.5566774,-111.36853,-111.36853)"
     clip-path="url(#clipPath863)"
     id="circle24"
     stroke="#000000"
     r="2.4000001"
     cy="208"
     cx="186.3" />
  <path
     transform="matrix(1.5566774,0,0,1.5566774,-111.36853,-111.36853)"
     clip-path="url(#clipPath859)"
     id="path26"
     d="M 128,278 H 273 M 182,172 h 37"
     stroke-width="1.92718"
     stroke-linecap="round"
     stroke="#000000"
     fill="none" />
</svg>
