<?xml version="1.0" encoding="UTF-8" standalone="no"?>
<svg
   xmlns:osb="http://www.openswatchbook.org/uri/2009/osb"
   xmlns:dc="http://purl.org/dc/elements/1.1/"
   xmlns:cc="http://creativecommons.org/ns#"
   xmlns:rdf="http://www.w3.org/1999/02/22-rdf-syntax-ns#"
   xmlns:svg="http://www.w3.org/2000/svg"
   xmlns="http://www.w3.org/2000/svg"
   xmlns:sodipodi="http://sodipodi.sourceforge.net/DTD/sodipodi-0.dtd"
   xmlns:inkscape="http://www.inkscape.org/namespaces/inkscape"
   inkscape:version="1.0 (4035a4fb49, 2020-05-01)"
   sodipodi:docname="refining.svg"
   id="svg28"
   version="1.1"
   viewBox="0 0 400 400">
  <metadata
     id="metadata32">
    <rdf:RDF>
      <cc:Work
         rdf:about="">
        <dc:format>image/svg+xml</dc:format>
        <dc:type
           rdf:resource="http://purl.org/dc/dcmitype/StillImage" />
        <dc:title />
      </cc:Work>
    </rdf:RDF>
  </metadata>
  <sodipodi:namedview
     inkscape:document-rotation="0"
     inkscape:snap-others="true"
     inkscape:object-nodes="true"
     inkscape:snap-smooth-nodes="true"
     inkscape:snap-nodes="true"
     inkscape:snap-bbox-midpoints="true"
     inkscape:snap-bbox-edge-midpoints="true"
     inkscape:bbox-nodes="true"
     inkscape:bbox-paths="false"
     inkscape:snap-bbox="false"
     inkscape:snap-object-midpoints="true"
     inkscape:snap-center="true"
     inkscape:snap-midpoints="false"
     inkscape:snap-intersection-paths="true"
     inkscape:object-paths="true"
     inkscape:current-layer="layer1"
     inkscape:window-maximized="0"
     inkscape:window-y="30"
     inkscape:window-x="8"
     inkscape:cy="283.63846"
     inkscape:cx="183.28143"
     inkscape:zoom="2.7037801"
     showborder="false"
     showgrid="false"
     id="namedview30"
     inkscape:window-height="1042"
     inkscape:window-width="1904"
     inkscape:pageshadow="2"
     inkscape:pageopacity="0"
     guidetolerance="10"
     gridtolerance="10"
     objecttolerance="10"
     borderopacity="1"
     bordercolor="#666666"
     pagecolor="#ffffff"
     showguides="false" />
  <defs
     id="defs2">
    <linearGradient
       id="linearGradient2983"
       osb:paint="solid">
      <stop
         style="stop-color:#333333;stop-opacity:1;"
         offset="0"
         id="stop2981" />
    </linearGradient>
    <inkscape:path-effect
       effect="bspline"
       id="path-effect1572"
       is_visible="true"
       lpeversion="1"
       weight="33.333333"
       steps="2"
       helper_size="0"
       apply_no_weight="true"
       apply_with_weight="true"
       only_selected="false" />
    <inkscape:path-effect
       effect="bspline"
       id="path-effect1558"
       is_visible="true"
       lpeversion="1"
       weight="33.333333"
       steps="2"
       helper_size="0"
       apply_no_weight="true"
       apply_with_weight="true"
       only_selected="false" />
    <inkscape:path-effect
       id="path-effect4"
       effect="bspline" />
    <inkscape:path-effect
       only_selected="false"
       apply_with_weight="true"
       apply_no_weight="true"
       helper_size="0"
       steps="2"
       weight="33.333333"
       lpeversion="1"
       is_visible="true"
       id="path-effect1329"
       effect="bspline" />
    <inkscape:path-effect
       only_selected="false"
       apply_with_weight="true"
       apply_no_weight="true"
       helper_size="0"
       steps="2"
       weight="33.333333"
       lpeversion="1"
       is_visible="true"
       id="path-effect1325"
       effect="bspline" />
    <inkscape:path-effect
       only_selected="false"
       apply_with_weight="true"
       apply_no_weight="true"
       helper_size="0"
       steps="2"
       weight="33.333333"
       lpeversion="1"
       is_visible="true"
       id="path-effect967"
       effect="bspline" />
    <inkscape:path-effect
       only_selected="false"
       apply_with_weight="true"
       apply_no_weight="true"
       helper_size="0"
       steps="2"
       weight="33.333333"
       lpeversion="1"
       is_visible="true"
       id="path-effect951"
       effect="bspline" />
    <inkscape:path-effect
       only_selected="false"
       apply_with_weight="true"
       apply_no_weight="true"
       helper_size="0"
       steps="2"
       weight="33.333333"
       lpeversion="1"
       is_visible="true"
       id="path-effect947"
       effect="bspline" />
    <inkscape:path-effect
       only_selected="false"
       apply_with_weight="true"
       apply_no_weight="true"
       helper_size="0"
       steps="2"
       weight="33.333333"
       lpeversion="1"
       is_visible="true"
       id="path-effect943"
       effect="bspline" />
    <inkscape:path-effect
       only_selected="false"
       apply_with_weight="true"
       apply_no_weight="true"
       helper_size="0"
       steps="2"
       weight="33.333333"
       lpeversion="1"
       is_visible="true"
       id="path-effect931"
       effect="bspline" />
  </defs>
  <g
     style="display:none"
     inkscape:groupmode="layer"
     id="layer4"
     inkscape:label="background"
     sodipodi:insensitive="true">
    <rect
       y="29.742279"
       x="-123.99378"
       height="402.51682"
       width="405.12427"
       id="rect992"
       style="display:inline;opacity:1;fill:#fda800;fill-opacity:1;stroke:#000000;stroke-linecap:round" />
  </g>
  <g
     style="display:inline"
     inkscape:label="golden"
     id="g3035"
     inkscape:groupmode="layer">
    <ellipse
       ry="52.75"
       rx="52.749996"
       cy="256.48428"
       cx="81.356911"
       id="ellipse2991"
       style="display:inline;opacity:0.252805;fill:none;stroke:#000000;stroke-width:0.999998;stroke-linecap:round;stroke-miterlimit:4;stroke-dasharray:none" />
    <ellipse
       ry="84.399956"
       rx="84.399948"
       cy="224.23871"
       cx="81.382812"
       id="ellipse2993"
       style="display:inline;opacity:0.252805;fill:none;stroke:#000000;stroke-width:1;stroke-linecap:round;stroke-miterlimit:4;stroke-dasharray:none" />
    <ellipse
       ry="31.649958"
       rx="31.649956"
       cy="256.48428"
       cx="81.356911"
       id="ellipse2995"
       style="display:inline;opacity:0.252805;fill:none;stroke:#000000;stroke-width:0.999998;stroke-linecap:round;stroke-miterlimit:4;stroke-dasharray:none" />
    <ellipse
       style="display:inline;opacity:0.252805;fill:none;stroke:#000000;stroke-width:1;stroke-linecap:round;stroke-miterlimit:4;stroke-dasharray:none"
       id="ellipse2997"
       cx="117.99693"
       cy="236.58827"
       rx="84.399948"
       ry="84.399956" />
    <ellipse
       ry="31.649958"
       rx="31.649956"
       cy="175.62984"
       cx="117.64326"
       id="ellipse3001"
       style="display:inline;opacity:0.252805;fill:none;stroke:#000000;stroke-width:0.999998;stroke-linecap:round;stroke-miterlimit:4;stroke-dasharray:none" />
    <ellipse
       style="display:inline;opacity:0.252805;fill:none;stroke:#000000;stroke-width:0.999998;stroke-linecap:round;stroke-miterlimit:4;stroke-dasharray:none"
       id="ellipse3003"
       cx="87.362785"
       cy="153.1891"
       rx="31.649956"
       ry="31.649958" />
    <ellipse
       style="display:inline;opacity:0.252805;fill:none;stroke:#000000;stroke-width:0.999998;stroke-linecap:round;stroke-miterlimit:4;stroke-dasharray:none"
       id="ellipse3009"
       cx="30.205286"
       cy="205.30676"
       rx="31.649956"
       ry="31.649958" />
    <ellipse
       style="display:inline;opacity:0.252805;fill:none;stroke:#000000;stroke-width:0.999998;stroke-linecap:round;stroke-miterlimit:4;stroke-dasharray:none"
       id="ellipse3013"
       cx="81.382812"
       cy="256.48428"
       rx="10.550007"
       ry="10.550008" />
    <path
       id="path3017"
       d="M -69.331339,256.48428 H 243.02559"
       style="opacity:0.252805;fill:#ff00ff;stroke:#000000;stroke-width:1px;stroke-linecap:butt;stroke-linejoin:miter;stroke-opacity:1" />
    <ellipse
       ry="21.100052"
       rx="21.10005"
       cy="256.48428"
       cx="81.356911"
       id="ellipse3019"
       style="display:inline;opacity:0.252805;fill:none;stroke:#000000;stroke-width:0.999996;stroke-linecap:round;stroke-miterlimit:4;stroke-dasharray:none" />
    <path
       style="opacity:0.252805;fill:#ff00ff;stroke:#000000;stroke-width:1px;stroke-linecap:butt;stroke-linejoin:miter;stroke-opacity:1"
       d="M -29.052041,366.91913 191.81766,146.04943"
       id="path3021" />
    <path
       id="path3023"
       d="m -29.05204,146.04943 220.8697,220.8697"
       style="opacity:0.252805;fill:#ff00ff;stroke:#000000;stroke-width:1px;stroke-linecap:butt;stroke-linejoin:miter;stroke-opacity:1" />
    <path
       id="path3025"
       d="m 81.382809,412.66274 1e-6,-312.35692"
       style="opacity:0.252805;fill:#ff00ff;stroke:#000000;stroke-width:1px;stroke-linecap:butt;stroke-linejoin:miter;stroke-opacity:1" />
    <ellipse
       style="display:inline;opacity:0.252805;fill:none;stroke:#000000;stroke-width:0.999998;stroke-linecap:round;stroke-miterlimit:4;stroke-dasharray:none"
       id="ellipse3027"
       cx="70.620003"
       cy="193.15488"
       rx="10.550007"
       ry="10.550008" />
    <ellipse
       style="display:inline;opacity:0.252805;fill:none;stroke:#000000;stroke-width:0.999998;stroke-linecap:round;stroke-miterlimit:4;stroke-dasharray:none"
       id="ellipse3029"
       cx="113.08164"
       cy="143.08511"
       rx="10.550007"
       ry="10.550008" />
    <ellipse
       ry="10.550008"
       rx="10.550007"
       cy="148.99222"
       cx="119.66438"
       id="ellipse3031"
       style="display:inline;opacity:0.252805;fill:none;stroke:#000000;stroke-width:0.999998;stroke-linecap:round;stroke-miterlimit:4;stroke-dasharray:none" />
    <path
       id="path3033"
       style="display:inline;opacity:0.252805;fill:none;stroke:#000000;stroke-width:0.999996;stroke-linecap:round;stroke-miterlimit:4;stroke-dasharray:none"
       d="m 124.38686,-211.19526 v -42.20008 h 42.20012 v 42.20008 z m 0,-42.20011 v -63.29993 h 63.29993 v 63.29993 z m 0,211 v -168.79991 h 168.79992 v 168.79991 z m 21.10008,-211.00002 a 21.100052,21.10005 0 0 1 21.10005,21.10005 21.100052,21.10005 0 0 1 -21.10005,21.10003 21.100052,21.10005 0 0 1 -21.10006,-21.10003 21.100052,21.10005 0 0 1 21.10006,-21.10005 m 10.5499,-63.29997 a 31.649958,31.649954 0 0 1 31.64995,31.64995 31.649958,31.649954 0 0 1 -31.64995,31.64997 31.649958,31.649954 0 0 1 -31.64997,-31.64997 31.649958,31.649954 0 0 1 31.64997,-31.64995 m 52.75,105.4999 a 84.399956,84.399948 0 0 1 84.39995,84.39995 84.399956,84.399948 0 0 1 -84.39995,84.39994 84.399956,84.399948 0 0 1 -84.39997,-84.39994 84.399956,84.399948 0 0 1 84.39997,-84.39995 m -42.19986,-21.09988 v -21.10001 h 21.10001 v 21.10001 z m 10.55002,-21.10005 a 10.550008,10.550007 0 0 1 10.55,10.55001 10.550008,10.550007 0 0 1 -10.55,10.55 10.550008,10.550007 0 0 1 -10.55001,-10.55 10.550008,10.550007 0 0 1 10.55001,-10.55001 m 10.5498,42.20025 v -105.49999 h 105.5 v 105.49999 z m 52.75,-105.49998 a 52.75,52.749996 0 0 1 52.75,52.75 52.75,52.749996 0 0 1 -52.75,52.74998 52.75,52.749996 0 0 1 -52.75,-52.74998 52.75,52.749996 0 0 1 52.75,-52.75" />
    <path
       style="opacity:0.22564;fill:none;stroke:#000000;stroke-width:1px;stroke-linecap:butt;stroke-linejoin:miter;stroke-opacity:1"
       d="m 30.205286,173.65681 v 63.29991"
       id="path3037" />
    <path
       style="opacity:0.22564;fill:none;stroke:#000000;stroke-width:1px;stroke-linecap:butt;stroke-linejoin:miter;stroke-opacity:1"
       d="M -1.4446697,205.30676 H 61.855242"
       id="path3039" />
    <path
       id="path1288-3"
       style="display:inline;opacity:1;fill:none;stroke:#000000;stroke-width:0.999998;stroke-linecap:round;stroke-miterlimit:4;stroke-dasharray:none;stroke-opacity:1"
       d="M 90.241673,203.86849" />
    <path
       style="display:inline;opacity:1;fill:none;stroke:#000000;stroke-width:0.999998;stroke-linecap:round;stroke-miterlimit:4;stroke-dasharray:none;stroke-opacity:1"
       d="M 69.065003,203.70489"
       id="path1063-2" />
    <ellipse
       transform="scale(-1,1)"
       ry="10.550008"
       rx="10.550007"
       cy="193.15488"
       cx="-92.145615"
       id="ellipse1234"
       style="display:inline;opacity:0.252805;fill:none;stroke:#000000;stroke-width:0.999998;stroke-linecap:round;stroke-miterlimit:4;stroke-dasharray:none" />
    <ellipse
       ry="31.649958"
       rx="31.649956"
       cy="203.21928"
       cx="113.13266"
       id="ellipse1248"
       style="display:inline;opacity:0.252805;fill:none;stroke:#000000;stroke-width:0.999998;stroke-linecap:round;stroke-miterlimit:4;stroke-dasharray:none" />
    <ellipse
       style="display:inline;opacity:0.252805;fill:none;stroke:#000000;stroke-width:0.999998;stroke-linecap:round;stroke-miterlimit:4;stroke-dasharray:none"
       id="ellipse1250"
       cx="108.8409"
       cy="208.09119"
       rx="31.649956"
       ry="31.649958" />
    <ellipse
       transform="scale(-1,1)"
       ry="84.399956"
       rx="84.399948"
       cy="236.58827"
       cx="-44.768692"
       id="ellipse1635"
       style="display:inline;opacity:0.252805;fill:none;stroke:#000000;stroke-width:1;stroke-linecap:round;stroke-miterlimit:4;stroke-dasharray:none" />
    <ellipse
       transform="scale(-1,1)"
       ry="31.649958"
       rx="31.649956"
       cy="205.30676"
       cx="-132.56033"
       id="ellipse1637"
       style="display:inline;opacity:0.252805;fill:none;stroke:#000000;stroke-width:0.999998;stroke-linecap:round;stroke-miterlimit:4;stroke-dasharray:none" />
    <path
       id="path1639"
       d="m 132.56034,173.65681 v 63.29991"
       style="opacity:0.22564;fill:none;stroke:#000000;stroke-width:1px;stroke-linecap:butt;stroke-linejoin:miter;stroke-opacity:1" />
    <path
       id="path1641"
       d="M 164.21029,205.30676 H 100.91038"
       style="opacity:0.22564;fill:none;stroke:#000000;stroke-width:1px;stroke-linecap:butt;stroke-linejoin:miter;stroke-opacity:1" />
  </g>
  <g
     style="display:inline"
     inkscape:label="refine"
     id="layer1"
     inkscape:groupmode="layer">
    <path
       style="display:inline;opacity:1;fill:#734e30;fill-opacity:1;stroke:none;stroke-width:1;stroke-linecap:round"
       d="m -255.81783,-71.61101 c 0.006,0.0187 0.0306,-0.0953 -0.0326,0.0305 -5.04985,8.11502 -5.77348,12.3114 -6.11068,18.78242 -0.87653,0.0682 -2.88428,-0.0176 -3.61472,-0.0295 0.47053,-2.93381 2.24322,-12.36603 9.75803,-18.78341 z"
       id="path1012-3"
       sodipodi:nodetypes="ccccc" />
    <path
       d="M -253.10237,-52.73823"
       style="display:inline;opacity:1;fill:none;stroke:#000000;stroke-width:0.999998;stroke-linecap:round;stroke-miterlimit:4;stroke-dasharray:none"
       id="path1288-6" />
    <path
       d="m -261.96114,-52.79811 c -5e-5,-0.0248 -8e-5,-0.0495 -8e-5,-0.0743 0,-6.74107 2.15232,-13.30607 6.14344,-18.73866"
       style="display:inline;opacity:1;fill:none;stroke:#734e30;stroke-width:0.999996;stroke-linecap:round;stroke-miterlimit:4;stroke-dasharray:none;stroke-opacity:1"
       id="path998-7" />
    <path
       d="m -265.57586,-52.8276 c 0.99428,-7.15172 4.41447,-13.79821 9.75808,-18.78345"
       style="display:inline;opacity:1;fill:none;stroke:#734e30;stroke-width:0.999996;stroke-linecap:round;stroke-miterlimit:4;stroke-dasharray:none;stroke-opacity:1"
       id="path1000-5" />
    <path
       id="path1032-3"
       d="m -321.77052,27.177261 -3.53759,-3.7782 10.74089,-32.6958004 10.74089,-32.6957906 c -0.78092,-0.78042 -1.56183,-1.56085 -2.34275,-2.34127 l 1.0669,-3.22226 c 2.5575,-7.72423 7.65942,-17.03371 12.11002,-22.8902 l 1.24984,-1.64464 3.27397,3.04711 c 2.38872,2.22319 4.02149,5.20996 6.00592,9.36264 1.66215,3.47826 2.81385,4.82736 5.18019,5.68539 l 3.0032,1.08894 25.06027,-0.16077 2.30522,-0.76325 c 2.65301,-0.8784 3.9304,-2.75457 5.55004,-6.14385 1.97675,-4.13656 2.89036,-6.69067 5.94512,-9.10396 l 3.39654,-2.6833 1.5367,2.05399 c 3.8515,5.14798 7.76034,12.2684 10.36868,18.90908 1.29119,3.28729 2.3113,6.52387 2.3113,6.52387 -0.75066,0.76471 -1.70324,1.6625 -2.34275,2.34127 0.0793,0.20655 4.91546,14.96289 10.74089,32.6957906 l 10.74089,32.6958004 -2.03139,2.22192 c -32.04983,33.51015 -85.85433,36.2119 -121.07299,1.49749 z"
       style="display:inline;opacity:1;fill:#ffeecc;fill-opacity:1;stroke:none;stroke-width:1;stroke-linecap:round;stroke-miterlimit:4;stroke-dasharray:none" />
    <path
       id="path1077-5"
       d="m -325.30811,23.404051 21.48178,-65.391601"
       style="display:inline;opacity:1;fill:none;stroke:#ffeecc;stroke-width:0.999998;stroke-linecap:round;stroke-miterlimit:4;stroke-dasharray:none;stroke-opacity:1" />
    <path
       id="path1075-6"
       d="m -306.16987,-44.3296 2.34354,2.34206"
       style="display:inline;opacity:1;fill:none;stroke:#ffeecc;stroke-width:0.999998;stroke-linecap:round;stroke-miterlimit:4;stroke-dasharray:none;stroke-opacity:1" />
    <path
       id="path1073-2"
       d="m -272.57878,-52.90183 21.18331,0.0588"
       style="display:inline;opacity:1;fill:none;stroke:#ffeecc;stroke-width:0.999998;stroke-linecap:round;stroke-miterlimit:4;stroke-dasharray:none;stroke-opacity:1" />
    <path
       id="path1071-9"
       d="m -306.16908,-44.32881 c 3.02622,-9.81181 8.10595,-19.66532 14.42676,-27.7571"
       style="display:inline;opacity:1;fill:none;stroke:#ffeecc;stroke-width:0.999998;stroke-linecap:round;stroke-miterlimit:4;stroke-dasharray:none;stroke-opacity:1" />
    <path
       id="path1069-1"
       d="m -198.66614,23.462841 c -16.02179,18.1638 -39.07481,28.5691 -63.29509,28.5691 -24.24759,0 -47.3239,-10.42871 -63.34688,-28.62788"
       style="display:inline;opacity:1;fill:none;stroke:#ffeecc;stroke-width:0.999998;stroke-linecap:round;stroke-miterlimit:4;stroke-dasharray:none;stroke-opacity:1" />
    <path
       id="path1067-2"
       d="m -291.74232,-72.08591 c 4.28133,3.44745 7.51566,7.90673 9.49266,12.93723"
       style="display:inline;opacity:1;fill:none;stroke:#ffeecc;stroke-width:0.999998;stroke-linecap:round;stroke-miterlimit:4;stroke-dasharray:none;stroke-opacity:1" />
    <path
       id="path1065-7"
       d="m -272.57878,-52.90183 a 10.550007,10.550008 0 0 1 -0.0353,6e-5 10.550007,10.550008 0 0 1 -9.63298,-6.24787"
       style="display:inline;opacity:1;fill:none;stroke:#ffeecc;stroke-width:0.999998;stroke-linecap:round;stroke-miterlimit:4;stroke-dasharray:none;stroke-opacity:1" />
    <path
       id="path1063-0"
       d="M -274.27904,-52.90183"
       style="display:inline;opacity:1;fill:none;stroke:#ffeecc;stroke-width:0.999998;stroke-linecap:round;stroke-miterlimit:4;stroke-dasharray:none;stroke-opacity:1" />
    <path
       id="path1061-9"
       d="m -232.23192,-72.02713 c -4.28133,3.44745 -7.51566,7.90673 -9.49266,12.93723"
       style="display:inline;opacity:1;fill:none;stroke:#ffeecc;stroke-width:0.999998;stroke-linecap:round;stroke-miterlimit:4;stroke-dasharray:none;stroke-opacity:1" />
    <path
       id="path1059-3"
       d="m -251.39547,-52.84305 a 10.550007,10.550008 0 0 0 0.0353,6e-5 10.550007,10.550008 0 0 0 9.63299,-6.24787"
       style="display:inline;opacity:1;fill:none;stroke:#ffeecc;stroke-width:0.999998;stroke-linecap:round;stroke-miterlimit:4;stroke-dasharray:none;stroke-opacity:1" />
    <path
       id="path1057-6"
       d="M -198.66614,23.462841 -220.14792,-41.92876"
       style="display:inline;opacity:1;fill:none;stroke:#ffeecc;stroke-width:0.999998;stroke-linecap:round;stroke-miterlimit:4;stroke-dasharray:none;stroke-opacity:1" />
    <path
       id="path1055-0"
       d="m -217.80438,-44.27081 -2.34354,2.34206"
       style="display:inline;opacity:1;fill:none;stroke:#ffeecc;stroke-width:0.999998;stroke-linecap:round;stroke-miterlimit:4;stroke-dasharray:none;stroke-opacity:1" />
    <path
       id="path1060-6"
       d="m -217.80517,-44.27002 c -3.02622,-9.81181 -8.10593,-19.66532 -14.42675,-27.7571"
       style="display:inline;opacity:1;fill:none;stroke:#ffeecc;stroke-width:0.999998;stroke-linecap:round;stroke-miterlimit:4;stroke-dasharray:none;stroke-opacity:1" />
    <path
       style="display:inline;opacity:1;fill:#ffdbed;fill-opacity:1;stroke:none;stroke-width:1;stroke-linecap:round;stroke-miterlimit:4;stroke-dasharray:none"
       d="m -255.97745,-71.76762 c -5.55114,-16.33161 5.22172,-35.77269 22.55128,-39.90964 -1.40384,2.909 -0.35165,7.89985 0.0609,8.24497 0.32777,0.2742 5.00386,1.1076 9.0036,-1.34376 0.65847,17.721 -13.12257,32.83952 -31.61574,33.00843 z"
       id="path1014-2"
       sodipodi:nodetypes="ccsccc" />
    <path
       sodipodi:nodetypes="csc"
       d="m -224.36171,-104.77605 c 0.02,0.46278 0.0303,0.89317 0.0303,1.35847 0,17.47827 -14.16778,31.6478 -31.64604,31.64996"
       style="display:inline;opacity:1;fill:none;stroke:#ffdbed;stroke-width:1;stroke-linecap:round;stroke-miterlimit:4;stroke-dasharray:none;stroke-opacity:1"
       id="path1038-6" />
    <path
       sodipodi:nodetypes="csc"
       d="m -255.9817,-71.76898 c -0.9077,-2.98504 -1.36903,-6.08789 -1.36903,-9.20788 0,-14.8149 10.17889,-27.2524 23.92456,-30.70039"
       style="display:inline;opacity:1;fill:none;stroke:#ffdbed;stroke-width:0.999996;stroke-linecap:round;stroke-miterlimit:4;stroke-dasharray:none;stroke-opacity:1"
       id="path1095-1" />
    <path
       sodipodi:nodetypes="csc"
       d="m -233.36531,-103.43229 c -0.57021,-1.32056 -0.86435,-2.74378 -0.86435,-4.18219 0,-1.3835 0.27475,-2.7843 0.80349,-4.06278"
       style="display:inline;opacity:1;fill:none;stroke:#ffdbed;stroke-width:0.999998;stroke-linecap:round;stroke-miterlimit:4;stroke-dasharray:none;stroke-opacity:1"
       id="path1092-8" />
    <path
       sodipodi:nodetypes="csc"
       d="m -224.36171,-104.77605 c -1.74311,1.1761 -3.79791,1.80447 -5.90068,1.80447 -1.0506,0 -2.09868,-0.15205 -3.10292,-0.46071"
       style="display:inline;opacity:1;fill:none;stroke:#ffdbed;stroke-width:0.999998;stroke-linecap:round;stroke-miterlimit:4;stroke-dasharray:none;stroke-opacity:1"
       id="path1141-7" />
    <ellipse
       style="display:inline;opacity:1;fill:#333333;fill-opacity:1;stroke:#333333;stroke-width:1;stroke-linecap:round;stroke-miterlimit:4;stroke-dasharray:none;stroke-opacity:1"
       id="path1566-9"
       cx="-276.89417"
       cy="-15.055342"
       rx="3.0876026"
       ry="3.023047" />
    <ellipse
       ry="3.023047"
       rx="3.0876026"
       cy="-15.029432"
       cx="-247.05423"
       id="ellipse1687-2"
       style="display:inline;opacity:1;fill:#333333;fill-opacity:1;stroke:#333333;stroke-width:1;stroke-linecap:round;stroke-miterlimit:4;stroke-dasharray:none;stroke-opacity:1" />
    <path
       id="ellipse1689-0"
       style="display:inline;opacity:1;fill:none;stroke:#333333;stroke-width:4;stroke-linecap:round;stroke-miterlimit:4;stroke-dasharray:none;stroke-opacity:1"
       d="M -240.88707,-0.12241939 A 21.10005,21.100052 0 0 1 -261.98712,20.977631 21.10005,21.100052 0 0 1 -283.08717,-0.12241939" />
    <path
       style="display:inline;opacity:1;fill:#734e30;fill-opacity:1;stroke:none;stroke-width:1;stroke-linecap:round"
       d="m -263.06085,121.81891 c 0.006,0.0187 0.0306,-0.0953 -0.0326,0.0305 -5.04985,8.11502 -5.77348,12.3114 -6.11068,18.78242 -0.87653,0.0682 -2.88428,-0.0176 -3.61472,-0.0295 0.47053,-2.93381 2.24322,-12.36603 9.75803,-18.78341 z"
       id="path1012-2"
       sodipodi:nodetypes="ccccc" />
    <path
       id="path1032-2"
       d="m -328.10762,234.59248 -3.53759,-3.7782 10.74089,-32.6958 10.74089,-32.69579 c -0.78092,-0.78042 -1.56183,-1.56085 -2.34275,-2.34127 l 1.0669,-3.22226 c 2.5575,-7.72423 7.65942,-17.03371 12.11002,-22.8902 l 1.24984,-1.64464 3.27397,3.04711 c 2.38872,2.22319 4.02149,5.20996 6.00592,9.36264 1.66215,3.47826 2.81385,4.82736 5.18019,5.68539 l 3.0032,1.08894 25.06027,-0.16077 2.30522,-0.76325 c 2.65301,-0.8784 3.93039,-2.75457 5.55003,-6.14385 1.97675,-4.13656 2.89036,-6.69067 5.94512,-9.10396 l 3.39654,-2.6833 1.5367,2.05399 c 3.8515,5.14798 7.76034,12.2684 10.36868,18.90908 1.29119,3.28729 2.3113,6.52387 2.3113,6.52387 -0.75066,0.76471 -1.70324,1.6625 -2.34275,2.34127 0.0793,0.20655 4.91546,14.96289 10.74089,32.69579 l 10.74089,32.6958 -2.03139,2.22192 c -32.04983,33.51015 -85.85432,36.2119 -121.07298,1.49749 z"
       style="display:inline;opacity:1;fill:#ffeecc;fill-opacity:1;stroke:none;stroke-width:1;stroke-linecap:round;stroke-miterlimit:4;stroke-dasharray:none" />
    <path
       style="display:inline;opacity:1;fill:#ffdbed;fill-opacity:1;stroke:none;stroke-width:1;stroke-linecap:round;stroke-miterlimit:4;stroke-dasharray:none"
       d="m -264.50252,113.57079 c -5.55114,-16.331609 5.22172,-35.772689 22.55127,-39.909639 -1.40384,2.909 -0.35165,7.89985 0.0609,8.24497 0.32777,0.2742 5.00386,1.1076 9.0036,-1.34376 0.65847,17.721 -13.12257,32.839519 -31.61573,33.008429 z"
       id="path1014-8"
       sodipodi:nodetypes="ccsccc" />
    <path
       style="display:inline;fill:none;stroke:#000000;stroke-width:0.999998;stroke-linecap:round;stroke-miterlimit:4;stroke-dasharray:none;stroke-opacity:1"
       d="m 18.03593,280.01077 21.48178,-65.3916"
       id="path1077-2" />
    <path
       sodipodi:nodetypes="cc"
       style="display:inline;fill:none;stroke:#000000;stroke-width:0.999998;stroke-linecap:round;stroke-miterlimit:4;stroke-dasharray:none;stroke-opacity:1"
       d="m 37.17417,212.27712 2.34354,2.34206"
       id="path1075-8" />
    <path
       style="display:inline;fill:none;stroke:#000000;stroke-width:0.999998;stroke-linecap:round;stroke-miterlimit:4;stroke-dasharray:none;stroke-opacity:1"
       d="m 144.67789,280.06956 c -16.02179,18.1638 -39.07482,28.5691 -63.29508,28.5691 -24.24759,0 -47.3239,-10.42871 -63.34688,-28.62788"
       id="path1069-3" />
    <path
       id="path1038-4"
       style="display:inline;fill:none;stroke:#000000;stroke-width:1;stroke-linecap:round;stroke-miterlimit:4;stroke-dasharray:none;stroke-opacity:1"
       d="m 118.98232,151.83067 c 0.02,0.46278 0.0303,0.89317 0.0303,1.35847 0,17.47827 -14.16779,31.6478 -31.64603,31.64996"
       sodipodi:nodetypes="csc" />
    <path
       id="path1095-5"
       style="display:inline;fill:none;stroke:#000000;stroke-width:0.999996;stroke-linecap:round;stroke-miterlimit:4;stroke-dasharray:none;stroke-opacity:1"
       d="m 87.36234,184.83774 c -0.9077,-2.98504 -1.36903,-6.08789 -1.36903,-9.20788 0,-14.8149 10.17889,-27.2524 23.92454,-30.70039"
       sodipodi:nodetypes="csc" />
    <path
       id="path1092-0"
       style="display:inline;fill:none;stroke:#000000;stroke-width:0.999998;stroke-linecap:round;stroke-miterlimit:4;stroke-dasharray:none;stroke-opacity:1"
       d="m 109.97871,153.17443 c -0.57021,-1.32056 -0.86435,-2.74378 -0.86435,-4.18219 0,-1.3835 0.27475,-2.7843 0.80349,-4.06278"
       sodipodi:nodetypes="csc" />
    <path
       id="path1141-3"
       style="display:inline;fill:none;stroke:#000000;stroke-width:0.999998;stroke-linecap:round;stroke-miterlimit:4;stroke-dasharray:none;stroke-opacity:1"
       d="m 118.98232,151.83067 c -1.74312,1.1761 -3.79792,1.80447 -5.90069,1.80447 -1.0506,0 -2.09868,-0.15205 -3.10292,-0.46071"
       sodipodi:nodetypes="csc" />
    <path
       sodipodi:nodetypes="cc"
       d="m 52.73103,183.07459 c 3.67951,3.74197 6.41202,8.37273 7.87699,13.40638"
       style="display:inline;fill:none;stroke:#000000;stroke-width:0.999998;stroke-linecap:round;stroke-miterlimit:4;stroke-dasharray:none"
       id="path1221" />
    <path
       sodipodi:nodetypes="cc"
       d="m 37.17416,212.27712 c 3.20275,-10.64315 8.51556,-20.60287 15.55687,-29.20253"
       style="display:inline;fill:none;stroke:#000000;stroke-width:1;stroke-linecap:round;stroke-miterlimit:4;stroke-dasharray:none"
       id="path1181" />
    <path
       sodipodi:nodetypes="csc"
       d="m 70.76526,203.70489 c -0.0388,4.3e-4 -0.1065,-1e-5 -0.14526,-1e-5 -4.54497,0 -8.57909,-2.91073 -10.01198,-7.22391"
       style="display:inline;fill:none;stroke:#000000;stroke-width:0.999998;stroke-linecap:round;stroke-miterlimit:4;stroke-dasharray:none"
       id="path1218" />
    <path
       id="path1238"
       style="display:inline;fill:none;stroke:#000000;stroke-width:0.999998;stroke-linecap:round;stroke-miterlimit:4;stroke-dasharray:none"
       d="m 110.03457,183.07459 c -3.67951,3.74197 -6.41202,8.37273 -7.87699,13.40638"
       sodipodi:nodetypes="cc" />
    <path
       id="path1242"
       style="display:inline;fill:none;stroke:#000000;stroke-width:0.999998;stroke-linecap:round;stroke-miterlimit:4;stroke-dasharray:none"
       d="m 92.00035,203.70489 c 0.0388,4.3e-4 0.10649,-1e-5 0.14526,-1e-5 4.54496,0 8.57908,-2.91073 10.01197,-7.22391"
       sodipodi:nodetypes="csc" />
    <path
       sodipodi:nodetypes="csc"
       d="m 81.48644,203.70589 c -0.002,-0.16219 -0.004,-0.3244 -0.004,-0.48661 0,-6.58831 2.04689,-13.00345 5.87217,-18.36751"
       style="display:inline;fill:none;stroke:#000000;stroke-width:0.999998;stroke-linecap:round;stroke-miterlimit:4;stroke-dasharray:none"
       id="path1276" />
    <path
       sodipodi:nodetypes="cc"
       d="m 77.4963,203.70524 c 1.01273,-7.23753 4.48285,-13.88679 9.85059,-18.8461"
       style="display:inline;fill:none;stroke:#000000;stroke-width:0.999998;stroke-linecap:round;stroke-miterlimit:4;stroke-dasharray:none"
       id="path1279" />
    <path
       id="path1643"
       d="m 144.72969,280.01077 -21.48177,-65.3916"
       style="display:inline;fill:none;stroke:#000000;stroke-width:0.999998;stroke-linecap:round;stroke-miterlimit:4;stroke-dasharray:none;stroke-opacity:1" />
    <path
       id="path1645"
       d="m 125.59145,212.27712 -2.34353,2.34206"
       style="display:inline;fill:none;stroke:#000000;stroke-width:0.999998;stroke-linecap:round;stroke-miterlimit:4;stroke-dasharray:none;stroke-opacity:1"
       sodipodi:nodetypes="cc" />
    <path
       id="path1647"
       style="display:inline;fill:none;stroke:#000000;stroke-width:1;stroke-linecap:round;stroke-miterlimit:4;stroke-dasharray:none"
       d="m 125.59147,212.27712 c -3.20276,-10.64315 -8.51556,-20.60287 -15.55688,-29.20253"
       sodipodi:nodetypes="cc" />
    <path
       id="path1651"
       d="M 70.76526,203.70489 H 92.00035"
       style="fill:none;stroke:#000000;stroke-width:1px;stroke-linecap:butt;stroke-linejoin:miter;stroke-opacity:1" />
  </g>
</svg>
