<?xml version="1.0" encoding="utf-8"?>
<!DOCTYPE svg PUBLIC "-//W3C//DTD SVG 1.1//EN" "http://www.w3.org/Graphics/SVG/1.1/DTD/svg11.dtd">
<svg version="1.1" xmlns="http://www.w3.org/2000/svg" xmlns:xlink="http://www.w3.org/1999/xlink" x="0px" y="0px" width="200px" height="200px" viewBox="0 0 2000 2000" preserveAspectRatio="xMidYMid meet">
<g id="layer101">
 <path fill="#ffc90e" d="M0 1000 l0 -1000 1000 0 1000 0 0 1000 0 1000 -1000 0 -1000 0 0 -1000z"/>
 </g>
<g id="layer102">
 <path fill="#efe4b0" d="M0 1000 l0 -1000 1000 0 1000 0 0 1000 0 1000 -1000 0 -1000 0 0 -1000z m1248 750 c29 -17 153 -60 172 -60 10 0 23 -7 30 -15 7 -8 23 -15 36 -15 13 0 24 -4 24 -10 0 -5 7 -10 15 -10 22 0 65 -30 65 -45 0 -7 16 -25 35 -39 19 -15 35 -34 35 -42 0 -7 6 -14 14 -14 7 0 16 -9 19 -21 3 -11 14 -23 25 -26 11 -3 22 -13 25 -24 3 -10 13 -22 24 -26 44 -17 48 -39 59 -302 5 -116 3 -136 -10 -143 -10 -6 -16 -23 -16 -46 0 -28 -8 -45 -29 -67 -52 -53 -101 -112 -101 -123 0 -11 -23 -22 -47 -22 -8 0 -28 -9 -43 -20 -28 -20 -28 -21 -33 -153 -3 -72 -9 -151 -14 -174 -11 -55 -46 -95 -80 -91 -29 3 -30 5 -74 104 -18 41 -40 74 -52 80 -12 5 -24 22 -28 37 -4 15 -21 43 -38 63 -17 19 -31 43 -31 53 0 21 -60 61 -90 61 -31 0 -114 -24 -122 -35 -6 -8 -196 -21 -360 -25 -20 -1 -28 -6 -28 -19 0 -10 -7 -24 -15 -31 -8 -7 -15 -27 -15 -46 0 -18 -4 -36 -10 -39 -5 -3 -10 -26 -10 -50 0 -29 -5 -45 -15 -49 -8 -3 -15 -13 -15 -22 0 -27 -40 -54 -80 -54 -45 0 -60 14 -60 60 0 20 -4 40 -9 45 -10 11 -19 86 -27 235 -6 105 -18 130 -64 130 -17 0 -38 13 -61 38 -44 47 -59 81 -59 137 0 24 -4 47 -10 50 -5 3 -10 44 -10 91 0 66 3 86 15 90 11 5 15 22 15 64 0 58 17 107 46 131 9 7 20 23 25 36 5 13 15 23 24 23 9 0 20 11 25 25 5 14 18 25 28 25 9 0 35 18 57 40 22 21 47 39 56 40 8 0 26 11 39 25 13 14 34 25 46 25 13 0 37 15 55 35 19 19 41 35 50 35 9 0 19 7 23 15 3 8 14 15 25 15 11 0 23 5 26 10 3 6 21 10 40 10 19 0 35 6 38 14 7 18 49 22 265 24 92 1 170 -2 180 -8z"/>
 <path fill="#efe4b0" d="M876 1713 c-16 -3 -35 -11 -43 -19 -8 -8 -24 -14 -36 -14 -26 0 -87 -22 -87 -31 0 -4 -16 -13 -35 -19 -19 -6 -35 -17 -35 -25 0 -7 -26 -22 -58 -34 -32 -12 -75 -36 -95 -54 -20 -18 -53 -43 -73 -57 -56 -39 -154 -142 -154 -162 0 -10 -4 -18 -10 -18 -6 0 -10 -30 -10 -69 0 -52 -4 -70 -15 -75 -11 -4 -15 -21 -15 -66 0 -33 4 -60 10 -60 6 0 10 -24 10 -53 0 -57 17 -107 38 -107 6 0 12 -5 12 -11 0 -21 29 -39 64 -39 20 0 36 -4 36 -10 0 -5 6 -10 14 -10 11 0 16 -26 20 -122 7 -161 16 -241 27 -253 5 -5 9 -24 9 -42 0 -25 4 -33 18 -33 23 0 42 19 42 42 0 9 6 21 14 25 7 4 16 25 20 46 3 20 9 53 12 72 3 19 12 40 20 46 8 6 14 21 14 33 0 13 10 32 23 44 21 20 25 20 44 7 14 -10 24 -12 28 -5 4 6 64 10 150 10 113 0 144 3 148 14 3 8 25 17 49 20 135 18 135 18 164 0 46 -29 74 -56 74 -74 0 -9 13 -29 29 -44 16 -15 31 -41 35 -57 4 -20 12 -29 24 -29 13 0 22 -12 30 -39 7 -21 19 -44 27 -51 8 -7 15 -18 15 -24 0 -16 24 -66 31 -66 27 0 40 64 46 237 l4 132 41 36 c23 19 49 35 57 35 9 0 42 32 74 70 33 39 63 70 68 70 5 0 9 22 9 50 0 34 5 52 16 58 13 7 14 26 10 123 -10 229 -8 222 -92 303 -41 39 -74 78 -74 86 0 9 -14 24 -31 34 -16 10 -34 29 -39 42 -7 16 -17 24 -34 24 -14 0 -28 5 -31 10 -3 6 -13 10 -22 10 -9 0 -24 6 -32 13 -9 7 -54 26 -101 42 -47 15 -89 32 -95 36 -9 9 -303 10 -359 2z m479 -303 c25 -24 45 -51 45 -60 0 -15 42 -40 67 -40 7 0 13 -11 13 -25 0 -14 5 -25 10 -25 6 0 10 -7 10 -15 0 -8 6 -15 13 -15 19 0 51 -37 39 -44 -6 -3 -24 -3 -41 0 -29 6 -46 24 -77 79 -6 11 -20 22 -30 24 -28 5 -44 21 -44 45 0 31 -64 78 -114 83 -30 4 -55 -2 -96 -21 -30 -14 -69 -26 -87 -26 -18 0 -58 -11 -89 -25 -31 -14 -102 -34 -158 -46 -56 -11 -114 -27 -130 -35 -36 -18 -46 -18 -46 -1 0 32 80 64 204 83 27 4 78 20 112 35 35 16 79 29 98 29 19 0 58 11 88 25 42 21 65 25 111 22 52 -3 61 -7 102 -47z m85 -390 c0 -20 -5 -30 -15 -30 -18 0 -30 24 -21 45 10 28 36 17 36 -15z m-621 -15 c11 -11 -12 -35 -33 -35 -28 0 -40 14 -32 37 5 11 13 13 34 8 15 -4 29 -8 31 -10z m81 -199 c0 -21 -23 -26 -120 -26 -61 0 -91 4 -99 13 -6 8 -8 17 -4 20 3 4 55 7 115 7 86 0 108 -3 108 -14z m450 4 c0 -5 20 -10 44 -10 26 0 48 -6 56 -15 7 -9 29 -15 51 -15 27 0 39 -4 39 -14 0 -28 -72 -36 -104 -11 -11 8 -39 15 -62 15 -24 0 -46 5 -49 10 -3 6 -14 10 -24 10 -21 0 -44 23 -34 33 10 11 83 8 83 -3z"/>
 </g>
<g id="layer103">
 <path fill="#ffffff" d="M876 1713 c-16 -3 -35 -11 -43 -19 -8 -8 -24 -14 -36 -14 -26 0 -87 -22 -87 -31 0 -4 -16 -13 -35 -19 -19 -6 -35 -17 -35 -25 0 -7 -26 -22 -58 -34 -32 -12 -75 -36 -95 -54 -20 -18 -53 -43 -73 -57 -56 -39 -154 -142 -154 -162 0 -10 -4 -18 -10 -18 -6 0 -10 -30 -10 -69 0 -52 -4 -70 -15 -75 -11 -4 -15 -21 -15 -66 0 -33 4 -60 10 -60 6 0 10 -24 10 -53 0 -57 17 -107 38 -107 6 0 12 -5 12 -11 0 -21 29 -39 64 -39 20 0 36 -4 36 -10 0 -5 6 -10 14 -10 11 0 16 -26 20 -122 7 -161 16 -241 27 -253 5 -5 9 -24 9 -42 0 -25 4 -33 18 -33 23 0 42 19 42 42 0 9 6 21 14 25 7 4 16 25 20 46 3 20 9 53 12 72 3 19 12 40 20 46 8 6 14 21 14 33 0 13 10 32 23 44 21 20 25 20 44 7 14 -10 24 -12 28 -5 4 6 64 10 150 10 113 0 144 3 148 14 3 8 25 17 49 20 135 18 135 18 164 0 46 -29 74 -56 74 -74 0 -9 13 -29 29 -44 16 -15 31 -41 35 -57 4 -20 12 -29 24 -29 13 0 22 -12 30 -39 7 -21 19 -44 27 -51 8 -7 15 -18 15 -24 0 -16 24 -66 31 -66 27 0 40 64 46 237 l4 132 41 36 c23 19 49 35 57 35 9 0 42 32 74 70 33 39 63 70 68 70 5 0 9 22 9 50 0 34 5 52 16 58 13 7 14 26 10 123 -10 229 -8 222 -92 303 -41 39 -74 78 -74 86 0 9 -14 24 -31 34 -16 10 -34 29 -39 42 -7 16 -17 24 -34 24 -14 0 -28 5 -31 10 -3 6 -13 10 -22 10 -9 0 -24 6 -32 13 -9 7 -54 26 -101 42 -47 15 -89 32 -95 36 -9 9 -303 10 -359 2z m479 -303 c25 -24 45 -51 45 -60 0 -15 42 -40 67 -40 7 0 13 -11 13 -25 0 -14 5 -25 10 -25 6 0 10 -7 10 -15 0 -8 6 -15 13 -15 19 0 51 -37 39 -44 -6 -3 -24 -3 -41 0 -29 6 -46 24 -77 79 -6 11 -20 22 -30 24 -28 5 -44 21 -44 45 0 31 -64 78 -114 83 -30 4 -55 -2 -96 -21 -30 -14 -69 -26 -87 -26 -18 0 -58 -11 -89 -25 -31 -14 -102 -34 -158 -46 -56 -11 -114 -27 -130 -35 -36 -18 -46 -18 -46 -1 0 32 80 64 204 83 27 4 78 20 112 35 35 16 79 29 98 29 19 0 58 11 88 25 42 21 65 25 111 22 52 -3 61 -7 102 -47z m85 -390 c0 -20 -5 -30 -15 -30 -18 0 -30 24 -21 45 10 28 36 17 36 -15z m-621 -15 c11 -11 -12 -35 -33 -35 -28 0 -40 14 -32 37 5 11 13 13 34 8 15 -4 29 -8 31 -10z m81 -199 c0 -21 -23 -26 -120 -26 -61 0 -91 4 -99 13 -6 8 -8 17 -4 20 3 4 55 7 115 7 86 0 108 -3 108 -14z m450 4 c0 -5 20 -10 44 -10 26 0 48 -6 56 -15 7 -9 29 -15 51 -15 27 0 39 -4 39 -14 0 -28 -72 -36 -104 -11 -11 8 -39 15 -62 15 -24 0 -46 5 -49 10 -3 6 -14 10 -24 10 -21 0 -44 23 -34 33 10 11 83 8 83 -3z"/>
 </g>

</svg>